<svg xmlns="http://www.w3.org/2000/svg" viewBox="0 0 512 512"><path d="M256.001 142.93c-36.083 0-65.438 29.356-65.438 65.438s29.355 65.438 65.438 65.438 65.438-29.356 65.438-65.438-29.356-65.438-65.438-65.438z"/><path d="M409.124 63.426C368.224 22.525 313.843 0 256.001 0S143.778 22.525 102.878 63.426c-40.902 40.902-63.427 95.282-63.427 153.123 0 117.013 110.64 214.338 170.08 266.625 8.259 7.266 15.392 13.54 21.073 18.847C237.725 508.675 246.861 512 256 512c9.138 0 18.276-3.327 25.396-9.977 5.683-5.308 12.815-11.582 21.074-18.848 59.44-52.287 170.08-149.612 170.08-266.625 0-57.842-22.525-112.222-63.426-153.124zM256.001 303.797c-52.621 0-95.43-42.809-95.43-95.43 0-52.621 42.809-95.43 95.43-95.43s95.43 42.809 95.43 95.43c0 52.621-42.81 95.43-95.43 95.43z"/></svg>