<svg height="512pt" viewBox="0 -54 512 511" width="512pt" xmlns="http://www.w3.org/2000/svg"><path d="m431.984375 191.246094v46.824218h75.144531l-23.269531-60.25h-38.390625c-7.4375 0-13.484375 6.023438-13.484375 13.425782zm0 0"/><path d="m319.996094 28.890625h-15v-13.386719c0-8.285156-6.71875-15.003906-15.003906-15.003906-8.289063 0-15.003907 6.71875-15.003907 15.003906v13.386719h-30.007812v-13.386719c0-8.285156-6.71875-15.003906-15.003907-15.003906-8.285156 0-15.003906 6.71875-15.003906 15.003906v13.386719h-30.003906v-13.386719c0-8.285156-6.71875-15.003906-15.003906-15.003906-8.289063 0-15.003906 6.71875-15.003906 15.003906v13.386719h-36.578126c-4.425781 0-8.621093 1.953125-11.472656 5.335937l-103.382812 122.71875c-2.277344 2.703126-3.527344 6.128907-3.527344 9.664063v71.460937h335v-194.175781c0-8.289062-6.71875-15.003906-15.003906-15.003906zm0 0"/><path d="m416.980469 268.078125c-8.285157 0-15.003907-6.71875-15.003907-15.003906v-61.828125c0-23.949219 19.511719-43.433594 43.492188-43.433594h26.773438c-6.710938-16.632812-18.054688-30.765625-32.890626-40.925781-15.214843-10.421875-33.011718-15.929688-51.460937-15.929688h-22.882813v261.070313c7.597657-26.378906 31.957032-45.734375 60.773438-45.734375 29.042969 0 53.558594 19.664062 60.949219 46.363281h10.265625c8.285156 0 15.003906-6.71875 15.003906-15.003906v-69.574219zm0 0"/><path d="m0 337.652344c0 8.285156 6.71875 15.003906 15.003906 15.003906h34.0625c7.390625-26.695312 31.910156-46.363281 60.953125-46.363281s53.558594 19.664062 60.949219 46.363281h164.03125v-84.578125h-335zm0 0"/><path d="m459.011719 369.46875c0-18.320312-14.878907-33.167969-33.234375-33.167969-18.351563 0-33.234375 14.847657-33.234375 33.167969 0 18.316406 14.882812 33.164062 33.234375 33.164062 18.355468 0 33.234375-14.847656 33.234375-33.164062zm0 0"/><path d="m143.253906 369.46875c0-18.320312-14.878906-33.167969-33.234375-33.167969s-33.234375 14.847657-33.234375 33.167969c0 18.316406 14.878906 33.164062 33.234375 33.164062s33.234375-14.847656 33.234375-33.164062zm0 0"/></svg>